{"title":"BBC.Galapagos.01of03.HDTV.720p.Legendado.PT-BR.mkv","uid":9193126,"size":1674364705,"categoryP":"video","categoryS":"hd___tv_shows","magnet":"?xt=urn:btih:7a3d5dd287547066fc617622cd9370cb4374244f&amp;dn=BBC.Galapagos.01of03.HDTV.720p.Legendado.PT-BR.mkv&amp;tr=udp%3A%2F%2Ftracker.openbittorrent.com%3A80&amp;tr=udp%3A%2F%2Fopen.demonii.com%3A1337&amp;tr=udp%3A%2F%2Ftracker.coppersurfer.tk%3A6969&amp;tr=udp%3A%2F%2Fexodus.desync.com%3A6969","seeders":1,"leechers":4,"uploader":null,"files":1,"time":1384435466,"description":"Audio: English\nLegendas/subtitles: Portuguese (mkv track)\n\n\nIMDB: www.imdb.com/title/tt2242910/\n\n+++++++++++++++++++++++++++++++++++++++++++\n\nVideo\nID                             : 1\nFormat                         : AVC\nFormat/Info                    : Advanced Video Codec\nFormat profile                 : &lt;a class=&quot;__cf_email__&quot; href=&quot;/cdn-cgi/l/email-protection&quot; data-cfemail=&quot;fab2939d92bab6c9d4c8&quot;&gt;[email&amp;#160;protected]&lt;/a&gt;&lt;script cf-hash='f9e31' type=&quot;text/javascript&quot;&gt;\n/* &lt;![CDATA[ */!function(){try{var t=&quot;currentScript&quot;in document?document.currentScript:function(){for(var t=document.getElementsByTagName(&quot;script&quot;),e=t.length;e--;)if(t[e].getAttribute(&quot;cf-hash&quot;))return t[e]}();if(t&amp;&amp;t.previousSibling){var e,r,n,i,c=t.previousSibling,a=c.getAttribute(&quot;data-cfemail&quot;);if(a){for(e=&quot;&quot;,r=parseInt(a.substr(0,2),16),n=2;a.length-n;n+=2)i=parseInt(a.substr(n,2),16)^r,e+=String.fromCharCode(i);e=document.createTextNode(e),c.parentNode.replaceChild(e,c)}}}catch(u){}}();/* ]]&gt; */&lt;/script&gt;\nFormat settings, CABAC         : Yes\nFormat settings, ReFrames      : 4 frames\nCodec ID                       : V_MPEG4/ISO/AVC\nDuration                       : 50mn 8s\nBit rate                       : 3 999 Kbps\nWidth                          : 1 280 pixels\nHeight                         : 720 pixels\nDisplay aspect ratio           : 16:9\nFrame rate mode                : Constant\nFrame rate                     : 60.000 fps\nColor space                    : YUV\nChroma subsampling             : 4:2:0\nBit depth                      : 8 bits\nScan type                      : Progressive\nBits/(Pixel*Frame)             : 0.072\nStream size                    : 1.37 GiB (88%)\nWriting library                : x264 core 133 r2334 a3ac64b\nLanguage                       : English\nDefault                        : Yes\nForced                         : No\n\nAudio\nID                             : 2\nFormat                         : AC-3\nFormat/Info                    : Audio Coding 3\nMode extension                 : CM (complete main)\nFormat settings, Endianness    : Big\nCodec ID                       : A_AC3\nDuration                       : 50mn 8s\nBit rate mode                  : Constant\nBit rate                       : 448 Kbps\nChannel(s)                     : 2 channels\nChannel positions              : Front: L R\nSampling rate                  : 48.0 KHz\nBit depth                      : 16 bits\nCompression mode               : Lossy\nDelay relative to video        : 25ms\nStream size                    : 161 MiB (10%)\nLanguage                       : English\nDefault                        : Yes\nForced                         : No\n\nText\nID                             : 3\nFormat                         : UTF-8\nCodec ID                       : S_TEXT/UTF8\nCodec ID/Info                  : UTF-8 Plain Text\nLanguage                       : Portuguese\nDefault                        : Yes\nForced                         : No\n\n","torrent":{"xt":"urn:btih:7a3d5dd287547066fc617622cd9370cb4374244f","amp;dn":"BBC.Galapagos.01of03.HDTV.720p.Legendado.PT-BR.mkv","amp;tr":["udp%3A%2F%2Ftracker.openbittorrent.com%3A80","udp%3A%2F%2Fopen.demonii.com%3A1337","udp%3A%2F%2Ftracker.coppersurfer.tk%3A6969","udp%3A%2F%2Fexodus.desync.com%3A6969"],"infoHash":"7a3d5dd287547066fc617622cd9370cb4374244f","infoHashBuffer":{"type":"Buffer","data":[122,61,93,210,135,84,112,102,252,97,118,34,205,147,112,203,67,116,36,79]},"announce":[],"urlList":[]}}